<svg xmlns="http://www.w3.org/2000/svg" viewBox="0 0 642.08 510.9"><defs><style>.cls-1,.cls-5{fill:#fff;}.cls-2,.cls-3,.cls-4{fill:#231f20;}.cls-2{stroke:#231f20;}.cls-2,.cls-4{stroke-miterlimit:10;stroke-width:4px;}.cls-4{stroke:#fff;}.cls-5{font-size:60px;font-family:ShaddedSouth, Shadded South;}</style></defs><g id="Layer_2" data-name="Layer 2"><g id="Layer_1-2" data-name="Layer 1"><circle class="cls-1" cx="157.59" cy="214.38" r="157.5"/><path class="cls-2" d="M334.57,506.21C417.18,520.49,549.69,478,606.16,379c22.36-39.2,30.12-84,30.12-84a257.48,257.48,0,0,0-37.06-183.35A191.6,191.6,0,0,1,613,222.89C595.22,326,499.06,395.44,398.27,378a182.08,182.08,0,0,1-32.54-8.77c-43.66-16.25-92.84-3.43-123.54,31.6h0c-16,17.24-14.8,63.44,14.31,78.82A262.42,262.42,0,0,0,334.57,506.21Z"/><ellipse class="cls-2" cx="430.53" cy="191.35" rx="189.44" ry="185.21" transform="translate(168.65 583) rotate(-80.19)"/><path class="cls-2" d="M185.45,52.59C100.66,37.94,19.64,97.21,4.46,185-9,262.77,33.82,336.82,102.76,362.86a55.75,55.75,0,0,1,104,1.14c52.64-18.57,94.33-65.5,104.78-125.95C326.66,150.28,270.23,67.25,185.45,52.59ZM104.84,292.74a22.68,22.68,0,0,1-25-20.11l-2-18.31,20.82-2.25a25.53,25.53,0,0,1,28.11,22.62l1.67,15.5Zm122.85-27.83A28.36,28.36,0,0,1,194.93,288l-16.54-2.86,2.38-13.72a28.34,28.34,0,0,1,32.76-23.1l16.53,2.86Z"/><rect class="cls-1" x="146.55" y="215.51" width="11.43" height="116.32" rx="5.72"/><path class="cls-3" d="M112,256.82h8a0,0,0,0,1,0,0v0a14.6,14.6,0,0,1-14.6,14.6h-8a0,0,0,0,1,0,0v0A14.6,14.6,0,0,1,112,256.82Z" transform="translate(-131.33 109.35) rotate(-34.81)"/><path class="cls-3" d="M209.92,251.21h8a0,0,0,0,1,0,0v0a14.6,14.6,0,0,1-14.6,14.6h-8a0,0,0,0,1,0,0v0A14.6,14.6,0,0,1,209.92,251.21Z" transform="translate(-110.61 164.23) rotate(-34.81)"/><polygon class="cls-3" points="152.57 369.55 172.7 334.68 132.44 334.68 152.57 369.55"/><path class="cls-4" d="M211.57,44.5h53.07a10.85,10.85,0,0,1,10.85,10.85v0a50.2,50.2,0,0,1-50.2,50.2H178.94A10.85,10.85,0,0,1,168.08,94.7V88A43.49,43.49,0,0,1,211.57,44.5Z" transform="translate(425.7 -40.04) rotate(131.88)"/><path class="cls-4" d="M23.17,45.8H69.53A50.2,50.2,0,0,1,119.73,96v0a10.85,10.85,0,0,1-10.85,10.85H55.8A43.49,43.49,0,0,1,12.32,63.37V56.65A10.85,10.85,0,0,1,23.17,45.8Z" transform="translate(78.78 -23.78) rotate(48.12)"/><path class="cls-1" d="M216.91,52.34h31.84a6.51,6.51,0,0,1,6.51,6.51v0A30.12,30.12,0,0,1,225.15,89H197.33a6.51,6.51,0,0,1-6.51-6.51v-4a26.09,26.09,0,0,1,26.09-26.09Z" transform="translate(424.55 -48.25) rotate(131.88)"/><text class="cls-5" transform="translate(264.99 371.68) rotate(143.98)"> </text><text class="cls-5" transform="translate(247.39 385.29) rotate(128.46)"> </text><text class="cls-5" transform="translate(233.33 409.11) rotate(99.6)"> </text><text class="cls-5" transform="matrix(0.29, 0.96, -0.96, 0.29, 230.49, 436.18)"> </text><text class="cls-5" transform="translate(244.89 465.07) rotate(36.15)"> </text><text class="cls-5" transform="matrix(0.91, 0.41, -0.41, 0.91, 261.94, 475.57)"> </text><text class="cls-5" transform="translate(277.03 482.35) rotate(20.75)"> </text><text class="cls-5" transform="translate(292.49 488.15) rotate(17.14)"> </text><text class="cls-5" transform="translate(310.28 495.01) rotate(8.39)">C</text><text class="cls-5" transform="translate(369.41 501.59) rotate(-5.1)">a</text><text class="cls-5" transform="translate(410.01 497.61) rotate(-13.1)">t</text><text class="cls-5" transform="translate(447.37 488.32) rotate(-18.19)"> </text><text class="cls-5" transform="matrix(0.91, -0.42, 0.42, 0.91, 464.82, 483.6)">C</text><text class="cls-5" transform="matrix(0.82, -0.57, 0.57, 0.82, 516.74, 458.37)">a</text><text class="cls-5" transform="matrix(0.72, -0.69, 0.69, 0.72, 550.57, 434.73)">f</text><text class="cls-5" transform="matrix(0.59, -0.81, 0.81, 0.59, 580.35, 405.93)">e</text><path class="cls-1" d="M42.53,54.69H70.34a30.12,30.12,0,0,1,30.12,30.12v0A6.51,6.51,0,0,1,94,91.32H62.11A26.09,26.09,0,0,1,36,65.23v-4a6.51,6.51,0,0,1,6.51-6.51Z" transform="translate(77.05 -26.54) rotate(48.12)"/></g></g></svg>