<svg xmlns="http://www.w3.org/2000/svg" viewBox="0 0 75.15 96.14"><defs><style>.cls-1{fill:none;stroke-width:8px;}.cls-1,.cls-2{stroke:#231f20;stroke-miterlimit:10;}.cls-2,.cls-3{fill:#231f20;}</style></defs><g id="Layer_2" data-name="Layer 2"><g id="Layer_1-2" data-name="Layer 1"><path class="cls-1" d="M4,17.12a13.12,13.12,0,1,1,26.23,0"/><path class="cls-2" d="M.58,24.55H2.86A4.55,4.55,0,0,1,7.42,29.1V72.55a0,0,0,0,1,0,0H5.14A4.55,4.55,0,0,1,.58,68V24.55A0,0,0,0,1,.58,24.55Z"/><circle class="cls-3" cx="4" cy="17.12" r="4"/><line class="cls-1" x1="30.23" y1="17.12" x2="30.23" y2="72.55"/><path class="cls-1" d="M30.23,72.55a19.6,19.6,0,0,0,39.19,0"/><line class="cls-1" x1="41.48" y1="0.28" x2="41.48" y2="72.55"/><path class="cls-1" d="M45.36,44.14c10.83,0,25.79-8.77,25.79-19.59S56.12,4.36,45.3,4.36"/></g></g></svg>