<svg xmlns="http://www.w3.org/2000/svg" viewBox="0 0 181.94 49.6"><defs><style>.cls-1{fill:#00aeef;}.cls-2,.cls-5{fill:#fff;}.cls-2,.cls-3{stroke:#231f20;stroke-miterlimit:10;}.cls-2{stroke-width:0.25px;}.cls-3,.cls-4{fill:#231f20;}.cls-3{stroke-width:0.24px;}</style></defs><g id="Layer_2" data-name="Layer 2"><g id="Layer_1-2" data-name="Layer 1"><rect class="cls-1" x="0.12" y="3.79" width="42.03" height="42.03"/><rect class="cls-2" x="139.47" y="3.79" width="42.03" height="42.03"/><rect class="cls-3" x="0.12" y="3.79" width="7.52" height="42.03"/><rect class="cls-4" x="19.03" y="24.8" width="3.93" height="21.01"/><rect class="cls-3" x="34.63" y="3.79" width="7.52" height="42.03"/><rect class="cls-5" x="7.64" y="24.8" width="7.58" height="21.01"/><rect class="cls-5" x="26.91" y="24.8" width="7.58" height="21.01"/><rect class="cls-4" x="15.22" y="24.8" width="3.82" height="21.01"/><rect class="cls-4" x="22.96" y="24.8" width="3.95" height="21.01"/><rect class="cls-4" x="58.02" y="3.79" width="11.5" height="42.03"/><rect class="cls-4" x="7.64" y="3.79" width="26.99" height="21.01"/><rect class="cls-4" x="85.39" y="3.87" width="42.03" height="42.03"/><rect class="cls-5" x="100.54" y="3.06" width="7.73" height="15.96"/><rect class="cls-5" x="108.27" width="7.73" height="15.15"/><rect class="cls-5" x="100.54" y="30.58" width="7.73" height="15.96"/><rect class="cls-5" x="108.27" y="34.45" width="7.73" height="15.15"/><rect class="cls-4" x="139.47" y="3.79" width="42.03" height="42.03"/><rect class="cls-5" x="170.33" y="11.21" width="11.61" height="11.61"/><rect class="cls-5" x="169.89" y="34.36" width="11.61" height="4.11"/></g></g></svg>