<svg xmlns="http://www.w3.org/2000/svg" xmlns:xlink="http://www.w3.org/1999/xlink" viewBox="0 0 418.46 618.79"><defs><style>.cls-1,.cls-11,.cls-12,.cls-13,.cls-14,.cls-15,.cls-16,.cls-17,.cls-18,.cls-19,.cls-20{fill:none;}.cls-2,.cls-7{fill:#808285;}.cls-3{fill:#6d6e71;}.cls-4{fill:#58595b;}.cls-5{fill:#414042;}.cls-21,.cls-6,.cls-8{fill:#231f20;}.cls-20,.cls-7{stroke:#231f20;}.cls-11,.cls-12,.cls-13,.cls-14,.cls-15,.cls-16,.cls-17,.cls-18,.cls-19,.cls-20,.cls-7{stroke-miterlimit:10;}.cls-8{font-size:57.58px;font-family:AcademyEngravedLetPlain, Academy Engraved LET;}.cls-9{fill:#e6e7e8;}.cls-10{clip-path:url(#clip-path);}.cls-11{stroke:#e6e7e8;stroke-width:9px;}.cls-12{stroke:#d1d3d4;}.cls-12,.cls-14,.cls-15{stroke-width:10px;}.cls-13{stroke:#939598;}.cls-13,.cls-16{stroke-width:13px;}.cls-14{stroke:#bcbec0;}.cls-15{stroke:#a7a9ac;}.cls-16{stroke:#808285;}.cls-17{stroke:#6d6e71;}.cls-17,.cls-19{stroke-width:12px;}.cls-18{stroke:#58595b;}.cls-18,.cls-20{stroke-width:8px;}.cls-19{stroke:#3e3e3f;}.cls-21{font-size:60px;font-family:DINCondensed-Bold, DIN Condensed;font-weight:700;}</style><clipPath id="clip-path"><circle class="cls-1" cx="229.48" cy="158.72" r="82.19"/></clipPath></defs><g id="Layer_2" data-name="Layer 2"><g id="Layer_1-2" data-name="Layer 1"><circle class="cls-2" cx="94.37" cy="467.93" r="80"/><circle class="cls-3" cx="94.77" cy="467.93" r="64"/><circle class="cls-4" cx="94.37" cy="468.33" r="48"/><circle class="cls-5" cx="94.77" cy="468.33" r="32"/><circle class="cls-6" cx="94.37" cy="467.93" r="16"/><path class="cls-7" d="M94.37,387.93s11-36-24-55l12-10-4-12S118.32,349.11,94.37,387.93Z"/><path class="cls-7" d="M94.37,387.93s15-61,41-55l-3,10,10,2s-33.1,27-40.35,43"/><text class="cls-8" transform="translate(0 598.07)">APPLE</text><path class="cls-7" d="M226.16,78.75s11-36-24-55l12-10-4-12S250.12,39.94,226.16,78.75Z"/><path class="cls-7" d="M226.16,78.75s15-61,41-55l-3,10,10,2s-33.1,27-40.35,43"/><circle class="cls-9" cx="229.48" cy="158.72" r="82.19"/><g class="cls-10"><path class="cls-11" d="M172.83,81.85c4.65,63.87,66.38,135.42,167.21,147.61"/><path class="cls-12" d="M181.49,76.85c4.65,63.87,66.38,135.42,167.21,147.61"/><path class="cls-13" d="M207.47,61.85c4.65,63.87,66.38,135.42,167.21,147.61"/><path class="cls-14" d="M190.15,71.85c4.65,63.87,66.38,135.42,167.21,147.61"/><path class="cls-15" d="M198.81,66.85c4.65,63.87,66.38,135.42,167.21,147.61"/><path class="cls-16" d="M216.13,56.85c4.65,63.87,66.38,135.42,167.21,147.61"/><path class="cls-17" d="M224.79,51.85c4.65,63.87,66.38,135.42,167.21,147.61"/><path class="cls-18" d="M233.45,46.85c4.65,63.87,66.38,135.42,167.21,147.61"/><path class="cls-19" d="M242.11,41.85c4.65,63.87,66.38,135.42,167.21,147.61"/><path class="cls-20" d="M250.77,36.85c4.65,63.87,66.38,135.42,167.21,147.61"/></g><path class="cls-6" d="M150.34,285.9,145,300.41h-3.3l15.42-42H161l16.08,42H173.5L168,285.9Zm16.62-3c-4.68-12.48-7.08-18.48-7.92-21.3H159c-1,3.18-3.72,10.62-7.5,21.3Z"/><path class="cls-6" d="M184.48,258.42h15c7.68,0,13,4.26,13,11.7s-5.22,12-13.38,12H187.78v18.29h-3.3Zm3.3,20.7h11.58c6.78,0,9.6-3.6,9.6-8.88,0-5.64-3.72-8.82-9.36-8.82H187.78Z"/><path class="cls-6" d="M221,258.42h15c7.68,0,13,4.26,13,11.7s-5.22,12-13.38,12H224.26v18.29H221Zm3.3,20.7h11.58c6.78,0,9.6-3.6,9.6-8.88,0-5.64-3.72-8.82-9.36-8.82H224.26Z"/><path class="cls-6" d="M257.44,258.42h3.24v39h22.56l-.6,3h-25.2Z"/><path class="cls-6" d="M314.38,279.78H293v17.63h23.46l-.48,3H289.72v-42h25.74v3H293v15.36h21.42Z"/><path class="cls-7" d="M292,385.93s11-36-24-55l12-10-4-12S315.94,347.12,292,385.93Z"/><path class="cls-7" d="M292,385.93s15-61,41-55l-3,10,10,2s-33.1,27-40.35,43"/><circle class="cls-9" cx="295.39" cy="458.75" r="82.19"/><ellipse class="cls-6" cx="252.38" cy="447.38" rx="16.92" ry="9.79"/><polygon class="cls-6" points="319.82 455.38 349.68 455.38 346.36 439.38 319.82 455.38"/><path class="cls-6" d="M334.78,496.91c-11.06,12.76-25.22,14.92-39.39,15.29-14.16-.37-28.33-2.52-39.38-15.29v-15a86.8,86.8,0,0,0,78.77,0Z"/><text class="cls-21" transform="translate(236.56 600.07)">APPLE</text></g></g></svg>