<svg xmlns="http://www.w3.org/2000/svg" viewBox="0 0 700.84 700.84"><defs><style>.cls-1,.cls-3{fill:#fff;}.cls-2{fill:#231f20;}.cls-2,.cls-3{stroke:#231f20;stroke-miterlimit:10;}.cls-3{stroke-width:10px;}.cls-4{fill:#010101;}</style></defs><g id="Layer_2" data-name="Layer 2"><g id="Layer_1-2" data-name="Layer 1"><rect class="cls-1" width="700.84" height="700.84"/><path class="cls-2" d="M350.42,10.62c-160,0-289.73,129.71-289.73,289.72H640.14C640.14,140.33,510.43,10.62,350.42,10.62Z"/><polyline class="cls-3" points="350.42 300.34 350.42 627.06 350.42 643.49"/><path class="cls-3" d="M350.42,643.49a35.79,35.79,0,1,0,71.57,0"/><rect class="cls-1" x="67.3" y="264.51" width="19.91" height="71.67"/><rect class="cls-1" x="91.25" y="255.22" width="18.08" height="71.67"/><rect class="cls-1" x="110.33" y="238.85" width="15.85" height="71.67"/><rect class="cls-1" x="138.09" y="246.37" width="19.91" height="54.97"/><rect class="cls-1" x="203.12" y="255.22" width="19.91" height="46.13"/><rect class="cls-1" x="290.01" y="248.58" width="19.91" height="52.77"/><rect class="cls-1" x="256.14" y="192.71" width="22.54" height="108.63"/><rect class="cls-1" x="280.09" y="224.12" width="25.48" height="77.23"/><rect class="cls-1" x="531.9" y="194.27" width="22.73" height="108.63"/><rect class="cls-1" x="561.89" y="192.71" width="23.13" height="108.63"/><rect class="cls-1" x="592.59" y="211.19" width="27.97" height="108.63"/><rect class="cls-1" x="163.3" y="214.39" width="19.91" height="91.65"/><rect class="cls-1" x="183.21" y="214.39" width="19.91" height="91.65"/><rect class="cls-1" x="132.34" y="264.51" width="19.91" height="36.83"/><rect class="cls-1" x="224.45" y="265.51" width="23.35" height="35.84"/><polyline class="cls-1" points="236.13 262.18 224.45 265.51 247.8 265.51"/><polyline class="cls-1" points="280.09 224.12 305.57 202.56 305.57 224.12"/><rect class="cls-1" x="321.24" y="244.02" width="24.33" height="57.33"/><polyline class="cls-1" points="321.24 244.02 327.16 236.2 338.99 236.2 345.57 244.02"/><rect class="cls-1" x="355.52" y="228.81" width="19.91" height="77.23"/><rect class="cls-1" x="375.43" y="220.67" width="19.91" height="80.68"/><rect class="cls-1" x="395.34" y="220.67" width="19.91" height="80.68"/><rect class="cls-1" x="416.25" y="244.08" width="19.91" height="80.68"/><rect class="cls-1" x="436.15" y="279.91" width="19.91" height="80.68"/><rect class="cls-1" x="500.1" y="238.85" width="19.91" height="71.67"/><rect class="cls-1" x="496.12" y="248.58" width="19.91" height="71.67"/><polyline class="cls-1" points="510.06 229.21 500.1 238.85 520.01 238.85"/><rect class="cls-1" x="457.13" y="239.57" width="19.91" height="80.68"/><rect class="cls-1" x="477.04" y="227.69" width="19.91" height="80.68"/><polyline class="cls-1" points="457.13 239.57 477.04 234.03 477.04 239.57"/><polyline class="cls-1" points="355.52 228.81 375.43 220.67 375.43 228.81"/><polyline class="cls-1" points="531.9 194.27 551.73 179.11 554.63 194.27"/><polyline class="cls-1" points="585.03 192.71 585.03 179.11 585.03 170.26 561.89 192.71"/><polyline class="cls-1" points="620.55 211.19 615.65 204.44 592.59 211.19"/><path class="cls-4" d="M416,647.82c-.13,0-.27.14-.39.12-1.8-.36-2.66.51-3.32,2.13-.95,2.37-2.19,4.61-3.27,6.92-.23.48-.4.68-1,.51q-4.75-1.39-9.54-2.68a2.07,2.07,0,0,1-1.07-.81q-4-4.74-7.94-9.53c-.17-.22-.87-.47-.33-.9s.79-1.35,1.79-.92c1.92.83,3.88,1.58,5.79,2.44a1.45,1.45,0,0,0,1.85-.35c1.52-1.39,1.59-2.08-.17-3.2-2.06-1.3-4.24-2.41-6.36-3.63a1.48,1.48,0,0,0-1.13,0c-1.59.33-3.15.83-4.75,1s-2.8,1.35-4,2.41a4.51,4.51,0,0,1-1.25,1,6.84,6.84,0,0,0-2.31-6.75,5.77,5.77,0,0,0-9.4,5.81,6.37,6.37,0,0,0,8.23,4.87c-1,1.91-2,3.71-3,5.48-.26.46-.73.15-1.07.08-2.65-.52-5.31-1-7.92-1.64-1.16-.3-1.7.42-2.43.91-.3.21,0,.43.1.63a4.52,4.52,0,0,0,1.95,1.72c3.24,1.52,6.48,3.06,9.69,4.64.56.28.79.12,1.12-.28,1.68-2,3.4-4,5.08-5.95.39-.46.59-.68,1.18-.13,2.31,2.13,4.69,4.18,7.05,6.25.44.39.6.61,0,1.07-2.09,1.51-4.11,3.12-6.16,4.69a.85.85,0,0,0-.34,1.14c1.33,3.77,2.57,7.57,3.89,11.35.41,1.19,1.44,2,2.07,3.08l.56-.3c0-.07.06-.15.12-.17,1.52-.45,1.66-1.52,1.45-2.91-.4-2.74-.63-5.5-.92-8.25-.12-1.16,0-1.2,1.08-1.53,5.56-1.63,11.31-2,17-2.51,1.63-.16,3.25-.28,4.88-.44a1.37,1.37,0,0,0,1.4-1.3c.6-3.9,1.36-7.76,2-11.65a7.42,7.42,0,0,0-.15-2.21Z"/></g></g></svg>